<svg id="Artwork" xmlns="http://www.w3.org/2000/svg" viewBox="0 0 637.86 141.83"><defs><style>.cls-1{fill:#e82e21;}</style></defs><title>Artboard 1</title><rect x="4.51" y="61.18" width="633.35" height="3.63"/><rect x="4.51" y="68.37" width="105.05" height="3.63"/><path d="M9.27,3.71V16.47H5.15V3.71H0V0H14.41V3.71Z"/><path d="M30.56,10.19H19.75v6.28H15.63V0h4.12V6.28H30.56V0h4.12V16.47H30.56Z"/><path d="M36.57,16.47V0H48.29V3.71h-7.6V6.49h6.16V10H40.69v2.78h7.6v3.71Z"/><path d="M9.24,26.52H8.63V37.07H4.51V20.59H9.33l9.6,10.3h.62V20.59h4.12V37.07H19Z"/><path d="M25.55,37.07V20.59H37.27V24.3h-7.6v2.78h6.16v3.5H29.67v2.78h7.6v3.71Z"/><path d="M37.64,20.59h4.59L45.8,33.71h1L50,20.59h7.74l3.73,13.12h1l3.09-13.12h4.67L65.67,37.07H58.34L54.55,23.95H53.39L49.94,37.07H42.6Z"/><path d="M3.58,46.21c0-3.48,2.78-5.35,6.36-5.35a12.64,12.64,0,0,1,5.66,1.28l-.78,3.5a10.69,10.69,0,0,0-5-1.26c-1.28,0-2.14.49-2.14,1.36,0,2.68,8.44,1.17,8.44,6.71C16.1,55.39,14,58,9.61,58a13.83,13.83,0,0,1-5.7-1.05l.16-3.77a12.86,12.86,0,0,0,5.66,1.3c1.81,0,2.27-.64,2.27-1.4C12,50.6,3.58,52,3.58,46.21Z"/><path d="M29.75,57.43a11.16,11.16,0,0,1-4.28.56,8.46,8.46,0,0,1-8.59-8.59c0-4.67,3.6-8.52,9-8.52a13.45,13.45,0,0,1,4.18.47l-.39,3.75A10.6,10.6,0,0,0,26,44.56c-3,0-4.84,1.79-4.84,4.84s2,4.82,4.94,4.82a9.25,9.25,0,0,0,3.69-.6Z"/><path d="M46.58,51.38H35.77v6.28H31.65V41.19h4.12v6.28H46.58V41.19h4.12V57.66H46.58Z"/><path d="M61.53,40.86c5.66,0,9.74,2.92,9.74,8.48,0,5.79-4.41,8.65-9.76,8.65s-9.8-2.9-9.8-8.63C51.71,44,55.72,40.86,61.53,40.86Zm-.06,13.67c3.23,0,5.56-1.65,5.56-5.27,0-3.29-2.33-4.94-5.54-4.94s-5.54,1.61-5.54,5.07S58.27,54.53,61.47,54.53Z"/><path d="M81.81,40.86c5.66,0,9.74,2.92,9.74,8.48,0,5.79-4.41,8.65-9.76,8.65S72,55.09,72,49.36C72,44,76,40.86,81.81,40.86Zm-.06,13.67c3.23,0,5.56-1.65,5.56-5.27,0-3.29-2.33-4.94-5.54-4.94s-5.54,1.61-5.54,5.07S78.56,54.53,81.75,54.53Z"/><path d="M92.69,41.19H96.8V53.75h12.75v3.91H92.69Z"/><path class="cls-1" d="M113.2,68.42h55.69c17.9,0,26.81,11.42,26.81,24.56,0,15.74-12.86,25.37-26.81,25.37H131.2v22h-18Zm18,16.19v18.44h35.09c8.82,0,10.8-5,10.8-9.63,0-3.78-2-8.82-10.8-8.82Z"/><path class="cls-1" d="M234.65,126.62H208.29l-4.95,13.76H184.18l28.88-72H231.6l27.08,72H239.15ZM213.51,112H230l-7.74-24Z"/><path class="cls-1" d="M261.64,68.42h34.1c16.1,0,24.11,11.42,24.11,24.56,0,10.62-5.4,18.44-12.59,22.4l12.59,25H299.61l-10-22h-10v22h-18Zm18,16.19v18.44h11.7c7,0,9.9-5,9.9-9.63,0-3.78-2.88-8.82-9.9-8.82Z"/><path class="cls-1" d="M324,90.37C324,75.16,336.13,67,351.78,67c9.09,0,19.07,2.34,24.74,5.58L373.1,87.85c-6-3.6-15-5.49-22-5.49-5.58,0-9.36,2.16-9.36,5.94,0,11.7,36.89,5.13,36.89,29.33,0,12.86-9.18,24.2-28.34,24.2-8.19,0-17.45-1.08-24.92-4.59l.72-16.46a56.19,56.19,0,0,0,24.74,5.67c7.92,0,9.9-2.79,9.9-6.12C360.78,109.53,324,115.83,324,90.37Z"/><path class="cls-1" d="M423,67c24.74,0,42.55,12.77,42.55,37.06,0,25.28-19.25,37.78-42.64,37.78-23.57,0-42.82-12.68-42.82-37.69C380.12,80.56,397.66,67,423,67Zm-.27,59.73c14.12,0,24.29-7.2,24.29-23,0-14.39-10.17-21.59-24.2-21.59s-24.2,7-24.2,22.13S408.82,126.71,422.76,126.71Z"/><path class="cls-1" d="M492,89.92h-4.5v50.47h-18v-72h25.28l47.59,45.43h4.5V68.42h18v72H543.13Z"/><path class="cls-1" d="M571.47,90.37c0-15.2,14.39-23.39,33.65-23.39,12.24,0,24.92,2.34,30.59,5.58l-3.42,15.29c-6-3.6-18.17-5.49-27.8-5.49-10.35,0-15.2,2.16-15.2,5.94,0,12.41,48.58,2.79,48.58,29.33,0,12.86-11,24.2-34.19,24.2-10.44,0-23.3-1.08-30.77-4.59l.72-16.46c7.47,3.6,18.35,5.67,30.59,5.67,11.79,0,15.74-2.79,15.74-6.12C620,108.72,571.47,118,571.47,90.37Z"/></svg>